<mxfile host="app.diagrams.net" modified="2022-10-15T09:13:50.091Z" agent="5.0 (X11; CrOS x86_64 14989.107.0) AppleWebKit/537.36 (KHTML, like Gecko) Chrome/105.0.0.0 Safari/537.36" etag="cAJWc9PPGhI0WCQgr8Xm" version="20.2.3" type="github">
  <diagram id="f2ft8yqFwmNnthZ0CB6P" name="Page-1">
    <mxGraphModel dx="938" dy="663" grid="0" gridSize="10" guides="1" tooltips="1" connect="1" arrows="1" fold="1" page="1" pageScale="1" pageWidth="200" pageHeight="390" background="#ffffff" math="0" shadow="1">
      <root>
        <mxCell id="0" />
        <mxCell id="1" parent="0" />
        <mxCell id="B4CApN_U5xcei9GQMjOe-3" value="" style="edgeStyle=orthogonalEdgeStyle;rounded=1;orthogonalLoop=1;jettySize=auto;html=1;startArrow=classic;startFill=1;sketch=1;" parent="1" source="B4CApN_U5xcei9GQMjOe-1" target="B4CApN_U5xcei9GQMjOe-2" edge="1">
          <mxGeometry relative="1" as="geometry" />
        </mxCell>
        <mxCell id="B4CApN_U5xcei9GQMjOe-1" value="&lt;blockquote style=&quot;margin: 0 0 0 40px; border: none; padding: 0px;&quot;&gt;&lt;blockquote style=&quot;margin: 0 0 0 40px; border: none; padding: 0px;&quot;&gt;&lt;blockquote style=&quot;margin: 0 0 0 40px; border: none; padding: 0px;&quot;&gt;&lt;blockquote style=&quot;margin: 0 0 0 40px; border: none; padding: 0px;&quot;&gt;&lt;span style=&quot;white-space: pre;&quot;&gt; &lt;/span&gt;&lt;span style=&quot;white-space: pre;&quot;&gt; &lt;/span&gt;&lt;span style=&quot;white-space: pre;&quot;&gt; &lt;/span&gt;&lt;span style=&quot;white-space: pre;&quot;&gt; &lt;/span&gt;&lt;span style=&quot;white-space: pre;&quot;&gt; &lt;/span&gt;&lt;span style=&quot;white-space: pre;&quot;&gt; &lt;/span&gt;Internet /&lt;/blockquote&gt;&lt;/blockquote&gt;&lt;/blockquote&gt;&lt;blockquote style=&quot;margin: 0 0 0 40px; border: none; padding: 0px;&quot;&gt;&lt;blockquote style=&quot;margin: 0 0 0 40px; border: none; padding: 0px;&quot;&gt;&lt;blockquote style=&quot;margin: 0 0 0 40px; border: none; padding: 0px;&quot;&gt;&lt;span style=&quot;white-space: pre;&quot;&gt; &lt;/span&gt;&lt;span style=&quot;white-space: pre;&quot;&gt; &lt;/span&gt;&lt;span style=&quot;white-space: pre;&quot;&gt; &lt;/span&gt;&lt;span style=&quot;white-space: pre;&quot;&gt; &lt;/span&gt;&lt;span style=&quot;white-space: pre;&quot;&gt; &lt;/span&gt;&lt;span style=&quot;white-space: pre;&quot;&gt; &lt;/span&gt;&lt;span style=&quot;background-color: initial;&quot;&gt;Lightning Network&lt;/span&gt;&lt;/blockquote&gt;&lt;/blockquote&gt;&lt;/blockquote&gt;&lt;/blockquote&gt;" style="ellipse;shape=cloud;whiteSpace=wrap;html=1;rounded=1;sketch=1;align=left;" parent="1" vertex="1">
          <mxGeometry x="215" y="3" width="330" height="116" as="geometry" />
        </mxCell>
        <mxCell id="B4CApN_U5xcei9GQMjOe-5" value="&lt;span style=&quot;color: rgb(0, 0, 0); font-family: Helvetica; font-size: 11px; font-style: normal; font-variant-ligatures: normal; font-variant-caps: normal; font-weight: 400; letter-spacing: normal; orphans: 2; text-align: center; text-indent: 0px; text-transform: none; widows: 2; word-spacing: 0px; -webkit-text-stroke-width: 0px; background-color: rgb(255, 255, 255); text-decoration-thickness: initial; text-decoration-style: initial; text-decoration-color: initial; float: none; display: inline !important;&quot;&gt;Clearnet&lt;/span&gt;" style="edgeStyle=orthogonalEdgeStyle;rounded=1;orthogonalLoop=1;jettySize=auto;html=1;startArrow=none;startFill=0;exitX=1;exitY=1;exitDx=0;exitDy=0;entryX=0;entryY=1;entryDx=0;entryDy=0;sketch=1;" parent="1" source="B4CApN_U5xcei9GQMjOe-2" target="B4CApN_U5xcei9GQMjOe-4" edge="1">
          <mxGeometry relative="1" as="geometry">
            <Array as="points">
              <mxPoint x="350" y="241" />
              <mxPoint x="430" y="241" />
            </Array>
          </mxGeometry>
        </mxCell>
        <mxCell id="B4CApN_U5xcei9GQMjOe-2" value="VPS" style="whiteSpace=wrap;html=1;rounded=1;sketch=1;" parent="1" vertex="1">
          <mxGeometry x="230" y="171" width="120" height="60" as="geometry" />
        </mxCell>
        <mxCell id="B4CApN_U5xcei9GQMjOe-7" value="&lt;span style=&quot;color: rgb(0, 0, 0); font-family: Helvetica; font-size: 11px; font-style: normal; font-variant-ligatures: normal; font-variant-caps: normal; font-weight: 400; letter-spacing: normal; orphans: 2; text-align: center; text-indent: 0px; text-transform: none; widows: 2; word-spacing: 0px; -webkit-text-stroke-width: 0px; background-color: rgb(255, 255, 255); text-decoration-thickness: initial; text-decoration-style: initial; text-decoration-color: initial; float: none; display: inline !important;&quot;&gt;Clearnet&lt;/span&gt;" style="edgeStyle=orthogonalEdgeStyle;rounded=1;orthogonalLoop=1;jettySize=auto;html=1;startArrow=none;startFill=0;exitX=1;exitY=1;exitDx=0;exitDy=0;entryX=0;entryY=1;entryDx=0;entryDy=0;sketch=1;" parent="1" source="B4CApN_U5xcei9GQMjOe-4" target="B4CApN_U5xcei9GQMjOe-6" edge="1">
          <mxGeometry relative="1" as="geometry">
            <Array as="points">
              <mxPoint x="550" y="241" />
              <mxPoint x="630" y="241" />
            </Array>
          </mxGeometry>
        </mxCell>
        <mxCell id="B4CApN_U5xcei9GQMjOe-9" value="Tor /&amp;nbsp;&lt;br&gt;Clearnet" style="edgeStyle=orthogonalEdgeStyle;rounded=1;orthogonalLoop=1;jettySize=auto;html=1;shadow=0;dashed=1;startArrow=classic;startFill=1;sketch=1;" parent="1" source="B4CApN_U5xcei9GQMjOe-4" target="B4CApN_U5xcei9GQMjOe-8" edge="1">
          <mxGeometry relative="1" as="geometry" />
        </mxCell>
        <mxCell id="B4CApN_U5xcei9GQMjOe-4" value="Wireguard Tunnel&lt;br&gt;(51820)" style="whiteSpace=wrap;html=1;rounded=1;sketch=1;" parent="1" vertex="1">
          <mxGeometry x="430" y="171" width="120" height="60" as="geometry" />
        </mxCell>
        <mxCell id="B4CApN_U5xcei9GQMjOe-12" value="Tor" style="edgeStyle=orthogonalEdgeStyle;shape=link;rounded=1;orthogonalLoop=1;jettySize=auto;html=1;shadow=0;dashed=1;startArrow=classic;startFill=1;sketch=1;exitX=0;exitY=0.5;exitDx=0;exitDy=0;entryX=1;entryY=0.5;entryDx=0;entryDy=0;" parent="1" source="B4CApN_U5xcei9GQMjOe-6" target="B4CApN_U5xcei9GQMjOe-4" edge="1">
          <mxGeometry relative="1" as="geometry" />
        </mxCell>
        <mxCell id="B4CApN_U5xcei9GQMjOe-6" value="LND Node 1&lt;br&gt;(9735)" style="whiteSpace=wrap;html=1;rounded=1;sketch=1;" parent="1" vertex="1">
          <mxGeometry x="630" y="171" width="120" height="60" as="geometry" />
        </mxCell>
        <mxCell id="B4CApN_U5xcei9GQMjOe-8" value="&lt;font color=&quot;#4d4d4d&quot;&gt;LND Node 2&lt;br&gt;(9736)&lt;/font&gt;" style="whiteSpace=wrap;html=1;rounded=1;sketch=1;" parent="1" vertex="1">
          <mxGeometry x="430" y="301" width="120" height="60" as="geometry" />
        </mxCell>
        <mxCell id="B4CApN_U5xcei9GQMjOe-10" value="Optional" style="text;html=1;strokeColor=none;fillColor=none;align=center;verticalAlign=middle;whiteSpace=wrap;rounded=1;sketch=1;" parent="1" vertex="1">
          <mxGeometry x="460" y="357" width="60" height="30" as="geometry" />
        </mxCell>
        <mxCell id="B4CApN_U5xcei9GQMjOe-11" value="&lt;font color=&quot;#1a1a1a&quot;&gt;Bitcoind Tor&lt;/font&gt;" style="ellipse;whiteSpace=wrap;html=1;rounded=1;sketch=1;" parent="1" vertex="1">
          <mxGeometry x="255" y="34" width="120" height="60" as="geometry" />
        </mxCell>
        <mxCell id="B4CApN_U5xcei9GQMjOe-15" value="Clearnet" style="edgeStyle=orthogonalEdgeStyle;rounded=1;orthogonalLoop=1;jettySize=auto;html=1;startArrow=none;startFill=0;entryX=1;entryY=0;entryDx=0;entryDy=0;exitX=0;exitY=0;exitDx=0;exitDy=0;sketch=1;" parent="1" source="B4CApN_U5xcei9GQMjOe-6" target="B4CApN_U5xcei9GQMjOe-4" edge="1">
          <mxGeometry relative="1" as="geometry">
            <mxPoint x="560" y="211" as="sourcePoint" />
            <mxPoint x="640" y="211" as="targetPoint" />
            <Array as="points">
              <mxPoint x="630" y="161" />
              <mxPoint x="550" y="161" />
            </Array>
          </mxGeometry>
        </mxCell>
        <mxCell id="B4CApN_U5xcei9GQMjOe-16" value="&lt;span style=&quot;color: rgb(0, 0, 0); font-family: Helvetica; font-size: 11px; font-style: normal; font-variant-ligatures: normal; font-variant-caps: normal; font-weight: 400; letter-spacing: normal; orphans: 2; text-align: center; text-indent: 0px; text-transform: none; widows: 2; word-spacing: 0px; -webkit-text-stroke-width: 0px; background-color: rgb(255, 255, 255); text-decoration-thickness: initial; text-decoration-style: initial; text-decoration-color: initial; float: none; display: inline !important;&quot;&gt;Clearnet&lt;/span&gt;" style="edgeStyle=orthogonalEdgeStyle;rounded=1;orthogonalLoop=1;jettySize=auto;html=1;startArrow=none;startFill=0;exitX=0;exitY=0;exitDx=0;exitDy=0;entryX=1;entryY=0;entryDx=0;entryDy=0;sketch=1;" parent="1" source="B4CApN_U5xcei9GQMjOe-4" target="B4CApN_U5xcei9GQMjOe-2" edge="1">
          <mxGeometry relative="1" as="geometry">
            <mxPoint x="570" y="221" as="sourcePoint" />
            <mxPoint x="650" y="221" as="targetPoint" />
            <Array as="points">
              <mxPoint x="430" y="161" />
              <mxPoint x="350" y="161" />
            </Array>
          </mxGeometry>
        </mxCell>
        <mxCell id="OxbBpTnjI9DeDOkSKS09-1" value="Tor" style="edgeStyle=orthogonalEdgeStyle;shape=link;rounded=1;orthogonalLoop=1;jettySize=auto;html=1;shadow=0;dashed=1;startArrow=classic;startFill=1;sketch=1;exitX=1;exitY=0.5;exitDx=0;exitDy=0;entryX=0;entryY=0.5;entryDx=0;entryDy=0;" parent="1" source="B4CApN_U5xcei9GQMjOe-2" target="B4CApN_U5xcei9GQMjOe-4" edge="1">
          <mxGeometry relative="1" as="geometry">
            <mxPoint x="429" y="131" as="sourcePoint" />
            <mxPoint x="548" y="141" as="targetPoint" />
          </mxGeometry>
        </mxCell>
        <mxCell id="OxbBpTnjI9DeDOkSKS09-2" value="" style="edgeStyle=orthogonalEdgeStyle;shape=link;rounded=1;orthogonalLoop=1;jettySize=auto;html=1;shadow=0;dashed=1;startArrow=classic;startFill=1;sketch=1;entryX=0.5;entryY=1;entryDx=0;entryDy=0;exitX=0.25;exitY=0;exitDx=0;exitDy=0;" parent="1" source="B4CApN_U5xcei9GQMjOe-2" target="B4CApN_U5xcei9GQMjOe-11" edge="1">
          <mxGeometry relative="1" as="geometry">
            <mxPoint x="575.4999999999999" y="62.97" as="targetPoint" />
            <mxPoint x="530" y="92.97" as="sourcePoint" />
          </mxGeometry>
        </mxCell>
      </root>
    </mxGraphModel>
  </diagram>
</mxfile>
